<?xml version="1.0" encoding="UTF-8" standalone="no"?>
<!-- Copyright 2017 mathsisfun.com -->
<svg xmlns="http://www.w3.org/2000/svg" width="600" height="78" version="1.1">
<defs/>
<g transform="translate(-49.3628,-741.6)">
<path style="fill:none; stroke:black; stroke-width:1.14px;" d="M 49.4,782.8 H 649.4"/>
<path style="fill:#c4a000; stroke:#c4a000; stroke-width:1.06;" d="M 81.5,789.7 V 778.1"/>
<path style="fill:#c4a000; stroke:#c4a000; stroke-width:1.06;" d="M 199.3,789.7 V 778.1"/>
<g transform="matrix(2.28876,0,0,2.28876,-450.244,-1006.78)">
<g transform="matrix(0.31394,0,0,0.267301,144.126,607.206)">
<path style="color:black; overflow:visible; fill:#c4a000; stroke:#c4a000; stroke-width:0.16; stroke-linecap:round; stroke-linejoin:round;" d="m 283.4,667.9 c 1,3 4,4.9 6.8,6 7.5,2.9 15.7,2.2 23.5,2 7.1,-0.1 14.1,-0.8 21.2,-0.2 8.2,0.6 16.6,1.1 24.2,4.6 2.2,1.4 5.3,3.8 5.7,5.9 -1.5,1.3 -2.8,1.6 -3.7,-0.6 -4,-4.7 -10.4,-5.5 -16.2,-6.5 -9.1,-1.2 -18.2,-1.5 -27.4,-0.9 -8.3,0.1 -16.7,1.1 -24.9,-0.8 -3.7,-0.9 -7.3,-2.4 -10,-5.2 -1.6,-1.3 -3.2,-4 -0.2,-4.1 0.3,-0 0.6,-0.2 0.9,-0.3 z"/>
<path style="color:black; overflow:visible; fill:#c4a000; stroke:#c4a000; stroke-width:0.16; stroke-linecap:round; stroke-linejoin:round;" d="m 443.1,667.9 c -1,3 -4,4.9 -6.8,6 -7.5,2.9 -15.7,2.2 -23.5,2 -7.1,-0.1 -14.1,-0.8 -21.2,-0.2 -8.2,0.6 -16.6,1.1 -24.2,4.6 -2.2,1.4 -5.3,3.8 -5.7,5.9 1.5,1.3 2.8,1.6 3.7,-0.6 4,-4.7 10.4,-5.5 16.2,-6.5 9.1,-1.2 18.2,-1.5 27.4,-0.9 8.3,0.1 16.7,1.1 24.9,-0.8 3.7,-0.9 7.3,-2.4 10,-5.2 1.6,-1.3 3.2,-4 0.2,-4.1 -0.3,-0 -0.6,-0.2 -0.9,-0.3 z"/>
</g>
</g>
<text x="124.7" y="818.7" style="font-family:'Comic Sans MS'; font-size:14.7px; color:black; overflow:visible; fill:#c4a000; stroke-width:1.14px;">10 m</text>
<text x="139.7" y="762.4" style="font-family:'Comic Sans MS'; font-size:14.7px; color:black; overflow:visible; fill:black; stroke-width:1.14px;">1 second</text>
<g>
<circle cx="474.6" cy="774.5" r="7.97442" style="color:black; overflow:visible; fill:none; stroke:black; stroke-width:1.2;"/>
<circle cx="500.2" cy="774.5" r="7.97442" style="color:black; overflow:visible; fill:none; stroke:black; stroke-width:1.2;"/>
<path style="fill:none; stroke:black; stroke-width:1.2;" d="m 500.1,774.7 -7.9,-12.9"/>
<path style="fill:none; stroke:black; stroke-width:1.2;" d="m 475.3,774 8.4,-5.9"/>
<path style="fill:none; stroke:black; stroke-width:1.2;" d="m 492.6,762.9 -6.3,10.8"/>
<path style="fill:none; stroke:black; stroke-width:1.2;" d="m 492.3,762.7 -9.5,3.3"/>
<path style="fill:none; stroke:black; stroke-width:1.2;" d="m 479.3,759.5 7,13.6"/>
<path style="fill:none; stroke:black; stroke-width:1.2; stroke-linecap:round;" d="m 476.4,758.9 4.7,0.7"/>
<path style="fill:none; stroke:black; stroke-width:1.2;" d="m 492.2,762.7 -0.4,-3.3"/>
<path style="fill:none; stroke:black; stroke-width:1.2; stroke-linecap:round; stroke-linejoin:round;" d="m 490.2,759.5 4.4,0.5 -0.2,-1.6 -4.6,-0.5"/>
<path style="fill:black; stroke-width:1.2;" d="m 494,745 c 0,0 -5,0.5 -5.3,0.7 -0.3,0.2 -6.7,3.5 -7.1,3.8 -0.4,0.3 -1.2,0.9 -1.4,2.7 -0.2,1.9 2.6,8.5 2.6,8.5 l 2.7,4 -0.4,8.1 0.6,3.4 4.1,0.2 -1.3,-2.7 0.1,-8.3 1.4,-0.2 0.4,-2.9 -2.3,-7.1 0.4,-1.2 1.6,-0.6 0.5,7 2.3,-0 -0.3,-2.4 c 0,0 0.7,-5.2 0.3,-5.2 -0.4,-0 0.8,-2.1 0.8,-2.1 0,0 1.3,0 1.8,0 0.5,-0 0.2,1.4 2.4,0.8 2.2,-0.6 2.3,-3.9 1.9,-4.5 -0.4,-0.6 -3.3,-3.1 -3.3,-3.1 l -1.8,-0.2 z"/>
<circle cx="474.6" cy="774.5" r="1.5763" style="color:black; overflow:visible; fill:black; stroke-width:1.2;"/>
<circle cx="500.2" cy="774.5" r="1.17222" style="color:black; overflow:visible; fill:black; stroke-width:1.2;"/>
<path style="fill:none; stroke:black; stroke-width:1.2;" d="m 475.5,774.4 0.6,2.6"/>
<path style="fill:none; stroke:black; stroke-width:1.2;" d="m 486.4,772.4 c -2.8,1.8 -3.6,3.2 -10.5,4.8"/>
</g>
<path style="fill:#c4a000; stroke:#c4a000; stroke-width:1.06;" d="M 447.7,789.7 V 778.1"/>
<path style="fill:#c4a000; stroke:#c4a000; stroke-width:1.06;" d="M 625,789.7 V 778.1"/>
<text x="520.5" y="818.7" style="font-family:'Comic Sans MS'; font-size:14.7px; color:black; overflow:visible; fill:#c4a000; stroke-width:1.14px;">14 m</text>
<text x="506.5" y="762.4" style="font-family:'Comic Sans MS'; font-size:14.7px; color:black; overflow:visible; fill:black; stroke-width:1.14px;">1 second</text>
<circle cx="251.9" cy="766.3" r="2.6927" style="color:black; overflow:visible; fill:black; stroke-width:0.34;"/>
<circle cx="278.4" cy="766.3" r="2.6927" style="color:black; overflow:visible; fill:black; stroke-width:0.34;"/>
<circle cx="305" cy="766.3" r="2.6927" style="color:black; overflow:visible; fill:black; stroke-width:0.34;"/>
<text x="272.2" y="755" style="font-family:'Comic Sans MS'; font-size:14.7px; font-style:italic; color:black; overflow:visible; fill:black; stroke-width:1.14px;">2 seconds later</text>
<circle cx="331.5" cy="766.3" r="2.6927" style="color:black; overflow:visible; fill:black; stroke-width:0.34;"/>
<circle cx="358.1" cy="766.3" r="2.6927" style="color:black; overflow:visible; fill:black; stroke-width:0.34;"/>
<circle cx="384.6" cy="766.3" r="2.6927" style="color:black; overflow:visible; fill:black; stroke-width:0.34;"/>
<g transform="matrix(3.44905,0,0,2.28876,-353.855,-1006.78)">
<g transform="matrix(0.31394,0,0,0.267301,144.126,607.206)">
<path style="color:black; overflow:visible; fill:#c4a000; stroke:#c4a000; stroke-width:0.13; stroke-linecap:round; stroke-linejoin:round;" d="m 283.4,667.9 c 1,3 4,4.9 6.8,6 7.5,2.9 15.7,2.2 23.5,2 7.1,-0.1 14.1,-0.8 21.2,-0.2 8.2,0.6 16.6,1.1 24.2,4.6 2.2,1.4 5.3,3.8 5.7,5.9 -1.5,1.3 -2.8,1.6 -3.7,-0.6 -4,-4.7 -10.4,-5.5 -16.2,-6.5 -9.1,-1.2 -18.2,-1.5 -27.4,-0.9 -8.3,0.1 -16.7,1.1 -24.9,-0.8 -3.7,-0.9 -7.3,-2.4 -10,-5.2 -1.6,-1.3 -3.2,-4 -0.2,-4.1 0.3,-0 0.6,-0.2 0.9,-0.3 z"/>
<path style="color:black; overflow:visible; fill:#c4a000; stroke:#c4a000; stroke-width:0.13; stroke-linecap:round; stroke-linejoin:round;" d="m 443.1,667.9 c -1,3 -4,4.9 -6.8,6 -7.5,2.9 -15.7,2.2 -23.5,2 -7.1,-0.1 -14.1,-0.8 -21.2,-0.2 -8.2,0.6 -16.6,1.1 -24.2,4.6 -2.2,1.4 -5.3,3.8 -5.7,5.9 1.5,1.3 2.8,1.6 3.7,-0.6 4,-4.7 10.4,-5.5 16.2,-6.5 9.1,-1.2 18.2,-1.5 27.4,-0.9 8.3,0.1 16.7,1.1 24.9,-0.8 3.7,-0.9 7.3,-2.4 10,-5.2 1.6,-1.3 3.2,-4 0.2,-4.1 -0.3,-0 -0.6,-0.2 -0.9,-0.3 z"/>
</g>
</g>
<g transform="translate(-366)">
<circle cx="474.6" cy="774.5" r="7.97442" style="color:black; overflow:visible; fill:none; stroke:black; stroke-width:1.2;"/>
<circle cx="500.2" cy="774.5" r="7.97442" style="color:black; overflow:visible; fill:none; stroke:black; stroke-width:1.2;"/>
<path style="fill:none; stroke:black; stroke-width:1.2;" d="m 500.1,774.7 -7.9,-12.9"/>
<path style="fill:none; stroke:black; stroke-width:1.2;" d="m 475.3,774 8.4,-5.9"/>
<path style="fill:none; stroke:black; stroke-width:1.2;" d="m 492.6,762.9 -6.3,10.8"/>
<path style="fill:none; stroke:black; stroke-width:1.2;" d="m 492.3,762.7 -9.5,3.3"/>
<path style="fill:none; stroke:black; stroke-width:1.2;" d="m 479.3,759.5 7,13.6"/>
<path style="fill:none; stroke:black; stroke-width:1.2; stroke-linecap:round;" d="m 476.4,758.9 4.7,0.7"/>
<path style="fill:none; stroke:black; stroke-width:1.2;" d="m 492.2,762.7 -0.4,-3.3"/>
<path style="fill:none; stroke:black; stroke-width:1.2; stroke-linecap:round; stroke-linejoin:round;" d="m 490.2,759.5 4.4,0.5 -0.2,-1.6 -4.6,-0.5"/>
<path style="fill:black; stroke-width:1.2;" d="m 494,745 c 0,0 -5,0.5 -5.3,0.7 -0.3,0.2 -6.7,3.5 -7.1,3.8 -0.4,0.3 -1.2,0.9 -1.4,2.7 -0.2,1.9 2.6,8.5 2.6,8.5 l 2.7,4 -0.4,8.1 0.6,3.4 4.1,0.2 -1.3,-2.7 0.1,-8.3 1.4,-0.2 0.4,-2.9 -2.3,-7.1 0.4,-1.2 1.6,-0.6 0.5,7 2.3,-0 -0.3,-2.4 c 0,0 0.7,-5.2 0.3,-5.2 -0.4,-0 0.8,-2.1 0.8,-2.1 0,0 1.3,0 1.8,0 0.5,-0 0.2,1.4 2.4,0.8 2.2,-0.6 2.3,-3.9 1.9,-4.5 -0.4,-0.6 -3.3,-3.1 -3.3,-3.1 l -1.8,-0.2 z"/>
<circle cx="474.6" cy="774.5" r="1.5763" style="color:black; overflow:visible; fill:black; stroke-width:1.2;"/>
<circle cx="500.2" cy="774.5" r="1.17222" style="color:black; overflow:visible; fill:black; stroke-width:1.2;"/>
<path style="fill:none; stroke:black; stroke-width:1.2;" d="m 475.5,774.4 0.6,2.6"/>
<path style="fill:none; stroke:black; stroke-width:1.2;" d="m 486.4,772.4 c -2.8,1.8 -3.6,3.2 -10.5,4.8"/>
</g>
</g>
</svg>
